<svg id="whatsapp" xmlns="http://www.w3.org/2000/svg"  viewBox="0 0 50 50" baseProfile="basic"><style>*{fill: white;}</style><path d="M25,8c9.389,0,17,7.611,17,17c0,9.389-7.611,17-17,17c-3.023,0-5.856-0.798-8.316-2.181l-8.537,1.904l2.185-8.158	C8.859,31.048,8,28.127,8,25C8,15.611,15.611,8,25,8z M33.943,31.254c0.373-1.048,0.373-1.946,0.257-2.135	c-0.113-0.183-0.408-0.294-0.857-0.519c-0.45-0.225-2.655-1.313-3.069-1.461c-0.408-0.148-0.71-0.225-1.004,0.225	c-0.302,0.45-1.158,1.461-1.425,1.756c-0.26,0.302-0.519,0.337-0.969,0.112c-0.45-0.225-1.896-0.696-3.61-2.227	c-1.333-1.187-2.233-2.655-2.492-3.104c-0.26-0.448-0.029-0.695,0.196-0.919c0.204-0.196,0.45-0.519,0.675-0.779	c0.217-0.267,0.294-0.45,0.442-0.752c0.155-0.294,0.077-0.562-0.035-0.786c-0.112-0.225-0.983-2.444-1.383-3.329	c-0.337-0.744-0.688-0.765-1.011-0.773c-0.261-0.014-0.563-0.014-0.857-0.014c-0.302,0-0.786,0.112-1.2,0.562	c-0.406,0.45-1.566,1.532-1.566,3.744c0,2.204,1.602,4.34,1.827,4.635c0.225,0.302,3.104,4.979,7.669,6.777	c3.785,1.49,4.558,1.194,5.386,1.117C31.737,33.312,33.57,32.301,33.943,31.254z"/></svg>