<?xml version="1.0" standalone="no"?>
<!DOCTYPE svg PUBLIC "-//W3C//DTD SVG 20010904//EN"
 "http://www.w3.org/TR/2001/REC-SVG-20010904/DTD/svg10.dtd">
<svg version="1.0" xmlns="http://www.w3.org/2000/svg"
 width="991.000000pt" height="1280.000000pt" viewBox="0 0 991.000000 1280.000000"
 preserveAspectRatio="xMidYMid meet">
<metadata>
Created by potrace 1.15, written by Peter Selinger 2001-2017
</metadata>
<g transform="translate(0.000000,1280.000000) scale(0.100000,-0.100000)"
fill="#000000" stroke="none">
<path d="M2990 12793 c-84 -14 -257 -66 -312 -94 -89 -45 -217 -139 -274 -202
-78 -86 -112 -151 -120 -230 -6 -61 -5 -71 16 -99 22 -29 22 -36 16 -162 -9
-178 4 -271 49 -354 l36 -64 -21 -61 c-29 -87 -27 -141 6 -164 14 -10 52 -43
84 -74 55 -53 59 -59 74 -133 9 -43 16 -95 16 -117 0 -178 83 -232 270 -174
111 35 239 44 275 21 57 -38 113 -149 130 -263 6 -38 4 -45 -21 -68 -15 -14
-68 -48 -117 -77 -159 -91 -263 -188 -389 -363 -73 -103 -119 -217 -173 -435
-30 -119 -35 -129 -116 -216 -33 -35 -59 -67 -60 -71 0 -5 -2 -30 -3 -58 -2
-36 -12 -66 -35 -105 -18 -30 -59 -101 -92 -157 -33 -57 -65 -103 -72 -103 -7
0 -39 12 -72 26 -33 14 -121 47 -195 73 -299 106 -333 129 -551 362 -187 200
-229 251 -229 280 0 15 9 71 21 125 11 55 24 162 28 239 8 147 16 177 67 238
30 36 30 42 -1 72 -31 32 -88 33 -155 4 -61 -26 -107 -89 -116 -160 -4 -27 -8
-49 -11 -49 -2 0 -20 17 -39 38 -47 50 -98 135 -135 224 -44 109 -128 255
-171 299 -54 55 -84 60 -120 20 -15 -17 -28 -42 -28 -56 0 -14 -3 -25 -6 -25
-4 0 -23 19 -43 42 -34 38 -41 41 -82 40 -88 -4 -90 -50 -8 -213 66 -133 65
-154 -1 -32 -48 86 -80 123 -109 123 -82 0 -64 -149 37 -297 23 -34 42 -65 42
-69 0 -4 18 -35 40 -69 47 -72 61 -122 36 -131 -31 -12 -61 6 -159 91 -54 46
-108 87 -121 91 -51 12 -86 -34 -72 -93 11 -42 150 -172 234 -217 90 -49 76
-33 237 -267 40 -58 119 -149 199 -230 114 -116 150 -160 259 -324 257 -386
685 -844 982 -1050 39 -27 87 -64 107 -81 45 -40 102 -57 147 -44 54 15 273
185 335 260 16 19 122 127 236 240 315 313 495 502 514 538 9 17 20 32 24 31
12 0 129 -191 199 -321 35 -68 77 -143 93 -168 16 -25 37 -71 48 -103 26 -74
179 -370 266 -515 37 -61 74 -133 82 -159 24 -81 56 -284 57 -373 l2 -85 -95
-32 c-52 -18 -138 -42 -190 -53 -52 -11 -117 -26 -145 -32 -106 -23 -494 -160
-530 -188 -5 -4 -44 -20 -85 -35 -610 -227 -979 -437 -1100 -625 -115 -179
-100 -411 46 -702 116 -231 650 -986 1076 -1520 121 -151 179 -232 216 -305
66 -129 174 -374 168 -381 -3 -2 -13 10 -23 28 -32 58 -101 137 -153 174 -61
44 -90 47 -90 11 0 -25 39 -75 58 -75 10 0 97 -131 131 -197 40 -79 20 -143
-54 -179 -42 -19 -76 -15 -169 20 -87 34 -214 57 -240 43 -14 -7 -16 -11 -6
-17 7 -4 10 -12 6 -18 -4 -6 35 -23 96 -42 57 -18 121 -42 143 -53 22 -12 66
-24 98 -27 l58 -5 -46 -77 c-33 -55 -49 -94 -56 -140 -21 -131 -77 -187 -304
-308 -64 -34 -134 -60 -242 -89 -59 -16 -93 -59 -93 -119 0 -65 33 -119 90
-148 78 -40 389 -58 486 -29 27 8 63 15 81 15 17 0 35 5 38 10 3 6 20 10 37
10 17 0 45 9 62 19 17 11 60 27 96 36 36 9 101 32 145 50 44 18 127 47 185 64
58 18 140 45 182 62 42 16 79 29 82 29 3 0 31 12 63 26 32 15 108 44 168 65
173 59 215 75 228 88 6 6 15 11 20 11 17 0 138 93 161 124 42 56 41 64 -25
151 -33 44 -90 130 -126 190 -73 123 -239 323 -281 341 -17 7 -47 40 -74 80
-121 182 -178 274 -203 324 -25 51 -61 114 -187 330 -27 47 -101 189 -163 315
-115 231 -133 283 -165 460 -7 39 -22 97 -32 130 -52 159 -191 403 -313 549
-36 43 -64 80 -62 83 2 2 42 -6 89 -17 122 -29 263 -48 413 -55 216 -11 682
18 1039 65 82 11 150 19 151 18 2 -2 13 -23 25 -48 103 -203 340 -506 990
-1265 269 -315 270 -316 405 -539 191 -315 268 -389 472 -451 72 -22 129 -61
307 -214 266 -228 555 -467 861 -711 154 -122 303 -241 330 -263 106 -86 226
-201 318 -305 92 -102 267 -320 267 -332 0 -3 -15 -4 -34 -2 -26 3 -41 -3 -70
-28 -59 -52 -46 -110 38 -165 15 -10 38 -36 51 -59 13 -23 44 -58 69 -78 41
-35 45 -42 51 -95 20 -189 35 -250 72 -294 23 -27 31 -30 67 -27 23 3 48 8 57
12 13 6 17 -1 21 -39 3 -27 19 -67 37 -96 27 -44 31 -59 31 -123 0 -98 -15
-174 -56 -278 -38 -98 -61 -210 -50 -251 3 -15 19 -41 35 -59 25 -28 35 -32
92 -36 73 -4 76 -3 212 118 92 81 126 125 188 242 54 101 60 114 114 263 19
55 44 121 56 148 23 54 59 205 93 388 13 69 46 195 74 280 72 223 95 339 96
489 1 69 -2 137 -6 152 -8 26 -10 26 -115 33 -60 3 -139 13 -178 21 -38 8
-114 14 -167 13 -53 0 -102 3 -109 7 -7 4 -59 17 -116 30 -125 27 -115 19
-454 361 -189 191 -252 262 -319 358 -134 194 -360 491 -467 615 -224 258
-413 408 -737 585 -68 37 -68 37 -109 129 -121 269 -342 693 -550 1056 -55 96
-108 194 -119 219 -27 63 -147 272 -215 376 -18 27 -33 59 -33 71 0 12 11 75
25 140 96 465 103 712 27 934 -46 133 -112 240 -366 595 -259 361 -373 648
-484 1220 -68 347 -79 437 -88 700 -6 208 10 1042 21 1053 3 3 69 14 148 23
78 10 183 28 232 39 50 11 156 29 236 40 179 25 280 51 379 97 l75 35 125 -5
c141 -7 214 -24 370 -87 58 -23 126 -49 152 -56 94 -29 295 -62 408 -69 177
-9 308 -25 392 -46 116 -29 248 -78 293 -109 22 -15 63 -39 90 -53 61 -30 76
-48 99 -110 41 -110 141 -224 254 -289 31 -18 89 -64 127 -104 73 -75 115 -95
154 -75 64 35 35 197 -46 261 -14 11 -23 24 -19 28 4 4 67 -55 139 -131 87
-90 139 -137 153 -137 26 0 64 40 64 66 0 10 -7 28 -15 38 -8 11 -21 42 -29
70 -10 32 -32 70 -62 104 -25 29 -45 55 -43 57 3 2 56 -37 119 -86 130 -100
171 -117 202 -79 23 28 23 87 0 121 -20 31 -93 104 -136 137 -16 12 -24 22
-16 22 7 0 27 -11 44 -24 47 -35 69 -39 98 -16 l26 20 -17 62 c-27 98 -50 136
-126 212 -39 39 -78 83 -88 98 -9 15 -30 30 -45 34 -15 3 -61 17 -102 30 -41
13 -82 24 -91 24 -9 0 -45 13 -80 30 -35 16 -91 36 -124 45 -60 15 -82 25
-189 85 -49 27 -75 35 -145 41 -66 5 -108 16 -181 47 -52 22 -106 43 -120 47
-14 4 -88 37 -165 72 -77 35 -169 73 -205 83 -60 17 -442 145 -608 205 -40 14
-138 37 -218 50 -122 20 -165 23 -277 18 -161 -7 -290 6 -492 52 -265 59 -281
60 -481 45 -226 -18 -290 -17 -389 8 -126 32 -213 42 -364 42 -171 0 -217 -9
-351 -70 -176 -80 -370 -125 -431 -99 -28 11 -90 9 -159 -6 -48 -11 -100 103
-100 219 0 39 -5 91 -11 115 -5 25 -16 126 -24 226 -15 210 -26 251 -121 442
-58 119 -72 138 -138 200 -90 84 -167 126 -268 147 -71 15 -198 19 -258 9z
m-2520 -2154 c0 -5 -4 -9 -10 -9 -5 0 -10 7 -10 16 0 8 5 12 10 9 6 -3 10 -10
10 -16z m30 -73 c0 -6 -7 -1 -15 10 -8 10 -15 23 -15 28 0 6 7 1 15 -10 8 -10
15 -23 15 -28z m55 -86 c3 -5 1 -10 -4 -10 -6 0 -11 5 -11 10 0 6 2 10 4 10 3
0 8 -4 11 -10z m25 -50 c0 -5 -2 -10 -4 -10 -3 0 -8 5 -11 10 -3 6 -1 10 4 10
6 0 11 -4 11 -10z m8074 -8921 c30 -23 29 -36 -1 -20 -10 5 -26 12 -35 15 -10
3 -18 10 -18 16 0 17 25 11 54 -11z m241 -480 c22 -60 16 -101 -8 -49 -19 44
-33 119 -20 105 6 -5 18 -31 28 -56z"/>
</g>
</svg>
