<svg width="50" height="50" viewBox="0 0 50 50" fill="none" xmlns="http://www.w3.org/2000/svg">
<path d="M32.8125 25C32.8125 27.072 31.9894 29.0591 30.5243 30.5243C29.0591 31.9894 27.072 32.8125 25 32.8125C22.928 32.8125 20.9409 31.9894 19.4757 30.5243C18.0106 29.0591 17.1875 27.072 17.1875 25C17.1875 24.5547 17.2344 24.1198 17.3151 23.6979H14.5833V34.1068C14.5833 34.8307 15.1693 35.4167 15.8932 35.4167H34.1094C34.4563 35.416 34.7888 35.2777 35.0339 35.0321C35.279 34.7865 35.4167 34.4537 35.4167 34.1068V23.6979H32.6849C32.7656 24.1198 32.8125 24.5547 32.8125 25ZM25 30.2083C25.6841 30.2082 26.3615 30.0732 26.9935 29.8113C27.6255 29.5493 28.1997 29.1654 28.6834 28.6815C29.167 28.1977 29.5506 27.6233 29.8123 26.9911C30.0739 26.359 30.2085 25.6815 30.2083 24.9974C30.2082 24.3133 30.0732 23.6358 29.8113 23.0039C29.5493 22.3719 29.1654 21.7976 28.6815 21.314C28.1977 20.8304 27.6233 20.4468 26.9911 20.1851C26.359 19.9235 25.6815 19.7889 24.9974 19.7891C23.6157 19.7894 22.2908 20.3386 21.314 21.3158C20.3373 22.2931 19.7887 23.6183 19.7891 25C19.7894 26.3817 20.3386 27.7066 21.3158 28.6834C22.2931 29.6601 23.6183 30.2087 25 30.2083ZM31.25 19.5312H34.3724C34.5798 19.5312 34.7788 19.449 34.9257 19.3026C35.0727 19.1561 35.1556 18.9574 35.1562 18.75V15.6276C35.1562 15.4197 35.0737 15.2203 34.9267 15.0733C34.7797 14.9263 34.5803 14.8437 34.3724 14.8437H31.25C31.0421 14.8437 30.8427 14.9263 30.6957 15.0733C30.5487 15.2203 30.4661 15.4197 30.4661 15.6276V18.75C30.4688 19.1797 30.8203 19.5312 31.25 19.5312ZM25 0C18.3696 0 12.0107 2.63392 7.32233 7.32233C2.63392 12.0107 0 18.3696 0 25C0 31.6304 2.63392 37.9893 7.32233 42.6777C12.0107 47.3661 18.3696 50 25 50C28.283 50 31.5339 49.3534 34.5671 48.097C37.6002 46.8406 40.3562 44.9991 42.6777 42.6777C44.9991 40.3562 46.8406 37.6002 48.097 34.5671C49.3534 31.5339 50 28.283 50 25C50 21.717 49.3534 18.4661 48.097 15.4329C46.8406 12.3998 44.9991 9.64379 42.6777 7.32233C40.3562 5.00086 37.6002 3.15938 34.5671 1.90301C31.5339 0.646644 28.283 0 25 0ZM38.0208 35.1276C38.0208 36.7188 36.7188 38.0208 35.1276 38.0208H14.8724C13.2812 38.0208 11.9792 36.7188 11.9792 35.1276V14.8724C11.9792 13.2812 13.2812 11.9792 14.8724 11.9792H35.1276C36.7188 11.9792 38.0208 13.2812 38.0208 14.8724V35.1276Z" fill="white"/>
</svg>
