<?xml version="1.0" encoding="iso-8859-1"?>
<!-- Generator: Adobe Illustrator 19.0.0, SVG Export Plug-In . SVG Version: 6.00 Build 0)  -->
<svg version="1.1" id="Layer_1" xmlns="http://www.w3.org/2000/svg" xmlns:xlink="http://www.w3.org/1999/xlink" x="0px" y="0px"
	 viewBox="0 0 512 512" style="enable-background:new 0 0 512 512;" xml:space="preserve">
<circle style="fill:#D93C1C;" cx="256" cy="256" r="256"/>
<circle style="fill:#E35336;" cx="256" cy="256" r="225.28"/>
<path style="fill:#FFFFFF;" d="M184.314,455.686c-3.086,0.001-6.225-0.562-9.275-1.748c-13.177-5.125-19.702-19.963-14.577-33.139
	c0.181-0.466,17.798-45.838,34.739-96.564c-1.979-3.601-3.776-7.359-5.388-11.276c-19.232-46.739-7.052-105.473,15.264-133.086
	c12.354-15.285,28.689-22.38,44.813-19.463c9.459,1.711,17.339,7.422,22.189,16.083c7.381,13.184,12.378,35.969-19.85,137.942
	c8.642,7.044,19.975,11.301,34.118,12.869c15.841,1.756,35.034-6.538,51.369-22.18c19.534-18.704,32.354-45.038,36.096-74.148
	c7.552-58.726-35.711-96.918-79.104-107.551c-48.879-11.977-94.769,3.581-122.758,41.616
	c-25.776,35.027-28.893,80.127-7.941,114.898c7.296,12.11,3.395,27.842-8.715,35.139c-12.109,7.297-27.842,3.397-35.14-8.715
	c-31.66-52.544-27.516-119.929,10.559-171.667c18.778-25.518,44.154-44.857,73.387-55.925c31.74-12.019,67.285-13.774,102.795-5.073
	c36.012,8.823,67.729,29.133,89.311,57.187c23.261,30.235,33.344,68.101,28.39,106.623c-5.231,40.679-23.51,77.827-51.468,104.598
	c-27.562,26.39-61.244,39.54-92.422,36.089c-16.827-1.866-31.988-6.507-45.14-13.675c-14.24,40.994-26.721,73.139-27.387,74.846
	C204.239,449.488,194.562,455.686,184.314,455.686z"/>
<g>
</g>
<g>
</g>
<g>
</g>
<g>
</g>
<g>
</g>
<g>
</g>
<g>
</g>
<g>
</g>
<g>
</g>
<g>
</g>
<g>
</g>
<g>
</g>
<g>
</g>
<g>
</g>
<g>
</g>
</svg>
